<svg xmlns="http://www.w3.org/2000/svg" viewBox="0 0 121 62.81"><defs><style>.cls-1{fill:#ef9e4e;}.cls-2{fill:#b8e0b8;}.cls-3{fill:none;stroke:#272726;stroke-linecap:round;stroke-linejoin:round;stroke-width:1.56px;}</style></defs><g id="Layer_2" data-name="Layer 2"><g id="objects"><path class="cls-1" d="M110.24,30.05a6.32,6.32,0,0,1,.11.76A8.37,8.37,0,0,0,102,23.22V36.88A8.36,8.36,0,0,0,110.24,30.05Z"/><path class="cls-2" d="M45.87,7.5A6.72,6.72,0,0,0,39.15.78c-2.33,0-6.72,3-6.72,6.72v1a7.5,7.5,0,0,1,3-5.71V52.92c0,5,2.49,6.69,6.72,6.69a4.69,4.69,0,0,0,2.42-.68,6.75,6.75,0,0,0,1.32-4Z"/><path class="cls-2" d="M32.12,44.14l.3.1V14.43c-.09-3.64-2.54-6.57-6.2-6.57A6.69,6.69,0,0,0,22,9.38v37c.31,4.29,2.73,5.76,6.69,5.76a4.89,4.89,0,0,0,2.85-.91A6.67,6.67,0,0,0,32.42,48V47h-.3Z"/><path class="cls-1" d="M18.63,36.69l.35.1V26a8.37,8.37,0,0,0-8.22,6.82A8.37,8.37,0,0,0,19,39.59h0l-.35,0Z"/><path class="cls-2" d="M95.3,8.24a12,12,0,0,0-4,1.32V47.15c.31,4.29,3.25,5.77,7.21,5.77a4.4,4.4,0,0,0,2.06-.52A6.72,6.72,0,0,0,102,48.23V40h0V36.88h0V15A6.72,6.72,0,0,0,95.3,8.24Z"/><path class="cls-2" d="M88.85,40.36l-.35,0V37.45l.35.11V15.24a8.91,8.91,0,0,1,1-4.17A6.7,6.7,0,0,0,88.58,15V7.88a6.72,6.72,0,0,0-6.72-6.72,5.63,5.63,0,0,0-4.51,2.26,5.82,5.82,0,0,1,.92-.64V53.43c0,5,2.49,6.7,6.72,6.7a4.32,4.32,0,0,0,2-.5,6.69,6.69,0,0,0,1.57-4.32V48.23a6.7,6.7,0,0,0,1.24,3.89L89.76,52a6.64,6.64,0,0,1-.91-3.37Z"/><path class="cls-3" d="M39.15.78h0A6.72,6.72,0,0,0,32.43,7.5v7.08A6.72,6.72,0,0,0,25.7,7.86h0A6.72,6.72,0,0,0,19,14.58v8.27a8.37,8.37,0,0,0,0,16.74v8.27a6.72,6.72,0,0,0,6.72,6.72h0a6.72,6.72,0,0,0,6.73-6.72v7.08a6.72,6.72,0,0,0,6.72,6.72h0a6.72,6.72,0,0,0,6.72-6.72V7.5A6.72,6.72,0,0,0,39.15.78Z"/><path class="cls-3" d="M19,36a4.76,4.76,0,0,1-4.75-4.76"/><line class="cls-3" x1="32.42" y1="41.37" x2="32.42" y2="47.98"/><line class="cls-3" x1="32.42" y1="20.96" x2="32.42" y2="37.1"/><line class="cls-3" x1="18.98" y1="25.95" x2="18.98" y2="28.51"/><line class="cls-3" x1="41.45" y1="22.23" x2="41.45" y2="26.46"/><line class="cls-3" x1="41.45" y1="7.61" x2="41.45" y2="17.96"/><line class="cls-3" x1="36.83" y1="44.36" x2="36.83" y2="54.58"/><line class="cls-3" x1="18.98" y1="32.78" x2="18.98" y2="39.59"/><line class="cls-3" x1="32.42" y1="14.58" x2="32.42" y2="16.43"/><path class="cls-3" d="M81.86,62h0a6.72,6.72,0,0,0,6.72-6.73V48.23A6.72,6.72,0,0,0,95.3,55h0A6.72,6.72,0,0,0,102,48.23V40a8.38,8.38,0,0,0,0-16.75V15A6.72,6.72,0,0,0,95.3,8.24h0A6.72,6.72,0,0,0,88.58,15V7.88a6.72,6.72,0,0,0-6.72-6.72h0a6.72,6.72,0,0,0-6.73,6.72V55.31A6.73,6.73,0,0,0,81.86,62Z"/><path class="cls-3" d="M102,26.84a4.76,4.76,0,0,1,4.76,4.76"/><line class="cls-3" x1="88.59" y1="21.45" x2="88.59" y2="14.84"/><line class="cls-3" x1="88.59" y1="41.85" x2="88.59" y2="25.72"/><line class="cls-3" x1="102.02" y1="36.87" x2="102.02" y2="33.27"/><line class="cls-3" x1="79.55" y1="40.58" x2="79.55" y2="36.35"/><line class="cls-3" x1="79.55" y1="55.21" x2="79.55" y2="44.85"/><line class="cls-3" x1="84.18" y1="18.46" x2="84.18" y2="8.24"/><line class="cls-3" x1="102.02" y1="29" x2="102.02" y2="23.22"/><line class="cls-3" x1="88.59" y1="48.23" x2="88.59" y2="46.39"/><path class="cls-3" d="M109.82,28.57a8.46,8.46,0,0,1,.57,3,8.37,8.37,0,0,1-.62,3.17h10.45v-6.2Z"/><path class="cls-3" d="M10.61,31.22a8.27,8.27,0,0,1,.44-2.65H.78v6.2H11.41A8.28,8.28,0,0,1,10.61,31.22Z"/><rect class="cls-3" x="46.03" y="28.57" width="28.95" height="6.2"/></g></g></svg>